<svg width="635" height="365" viewBox="0 0 635 365" fill="none" xmlns="http://www.w3.org/2000/svg">
<g opacity="0.8" filter="url(#filter0_f_883_289)">
<path d="M615.245 97.2009C615.245 111.48 609.332 124.72 599.25 135.606C606.519 134.165 614.151 133.397 622.02 133.397C671.29 133.397 711.232 163.485 711.232 200.598C711.232 203.447 710.998 206.254 710.541 209.009C723.351 203.65 738.097 200.598 753.788 200.598C803.058 200.598 843 230.685 843 267.799C843 304.913 803.058 335 753.788 335C725.299 335 699.929 324.94 683.596 309.279C670.771 324.725 647.988 335 622.02 335C595.837 335 572.893 324.556 560.13 308.897C547.366 324.556 524.422 335 498.241 335C474.635 335 453.66 326.51 440.408 313.362C424.108 326.667 400.761 335 374.832 335C357.534 335 341.384 331.291 327.711 324.872C315.841 331.249 301.312 335 285.62 335C267.312 335 250.586 329.893 237.819 321.467C225.051 329.893 208.327 335 190.019 335C166.733 335 146.009 326.739 132.729 313.897C123.328 326.492 105.419 335 84.8703 335C54.5661 335 30 316.495 30 293.668C30 270.842 54.5661 252.337 84.8703 252.337C98.8426 252.337 111.594 256.271 121.282 262.748C131.002 241.184 158.105 225.666 190.019 225.666L190.405 225.667C190.149 224.049 190.019 222.402 190.019 220.732C190.019 197.905 214.585 179.4 244.889 179.4C249.424 179.4 253.83 179.814 258.045 180.596C265.593 164.564 285.902 153.082 309.773 153.082C311.143 153.082 312.498 153.12 313.843 153.194C322.034 138.129 341.692 127.517 364.641 127.517C371.09 127.517 377.278 128.354 383.025 129.894C388.062 110.982 410.234 96.7369 436.823 96.7369C437.154 59.837 476.969 30 526.033 30C575.303 30 615.245 60.0872 615.245 97.2009Z" fill="url(#paint0_linear_883_289)"/>
</g>
<defs>
<filter id="filter0_f_883_289" x="0" y="0" width="873" height="365" filterUnits="userSpaceOnUse" color-interpolation-filters="sRGB">
<feFlood flood-opacity="0" result="BackgroundImageFix"/>
<feBlend mode="normal" in="SourceGraphic" in2="BackgroundImageFix" result="shape"/>
<feGaussianBlur stdDeviation="15" result="effect1_foregroundBlur_883_289"/>
</filter>
<linearGradient id="paint0_linear_883_289" x1="436.5" y1="30" x2="178.516" y2="631.415" gradientUnits="userSpaceOnUse">
<stop stop-color="#D9D9D9"/>
<stop offset="1" stop-color="#D3D1D1" stop-opacity="0"/>
</linearGradient>
</defs>
</svg>
