<svg width="430" height="311" viewBox="0 0 430 311" fill="none" xmlns="http://www.w3.org/2000/svg">
<g filter="url(#filter0_f_682_896)">
<path d="M-45.1814 43.2009C-45.1814 57.4804 -40.0969 70.7202 -31.4288 81.6059C-37.6786 80.1648 -44.2408 79.3974 -51.0062 79.3974C-93.3675 79.3974 -127.709 109.485 -127.709 146.598C-127.709 149.447 -127.507 152.254 -127.115 155.009C-138.129 149.65 -150.807 146.598 -164.297 146.598C-206.659 146.598 -241 176.685 -241 213.799C-241 250.913 -206.659 281 -164.297 281C-139.803 281 -117.991 270.94 -103.947 255.279C-92.9211 270.725 -73.3329 281 -51.0062 281C-28.4948 281 -8.76813 270.556 2.20587 254.897C13.1799 270.556 32.9066 281 55.4164 281C75.7127 281 93.7462 272.51 105.14 259.362C119.155 272.667 139.228 281 161.52 281C176.394 281 190.279 277.291 202.035 270.872C212.24 277.249 224.732 281 238.223 281C253.964 281 268.345 275.893 279.322 267.467C290.299 275.893 304.678 281 320.419 281C340.44 281 358.258 272.74 369.675 259.897C377.759 272.492 393.157 281 410.824 281C436.879 281 458 262.495 458 239.668C458 216.842 436.879 198.337 410.824 198.337C398.811 198.337 387.847 202.271 379.518 208.748C371.161 187.184 347.858 171.666 320.419 171.666L320.087 171.667C320.307 170.049 320.419 168.402 320.419 166.732C320.419 143.905 299.298 125.4 273.243 125.4C269.344 125.4 265.556 125.814 261.932 126.596C255.442 110.564 237.981 99.0824 217.457 99.0824C216.28 99.0824 215.114 99.1202 213.958 99.1944C206.916 84.1292 190.014 73.5166 170.282 73.5166C164.738 73.5166 159.418 74.3541 154.476 75.8936C150.146 56.9821 131.083 42.7369 108.222 42.7369C107.937 5.837 73.7054 -24 31.5212 -24C-10.8401 -24 -45.1814 6.08718 -45.1814 43.2009Z" fill="url(#paint0_linear_682_896)"/>
</g>
<defs>
<filter id="filter0_f_682_896" x="-271" y="-54" width="759" height="365" filterUnits="userSpaceOnUse" color-interpolation-filters="sRGB">
<feFlood flood-opacity="0" result="BackgroundImageFix"/>
<feBlend mode="normal" in="SourceGraphic" in2="BackgroundImageFix" result="shape"/>
<feGaussianBlur stdDeviation="15" result="effect1_foregroundBlur_682_896"/>
</filter>
<linearGradient id="paint0_linear_682_896" x1="108.5" y1="-24" x2="392.963" y2="546.156" gradientUnits="userSpaceOnUse">
<stop stop-color="#D9D9D9"/>
<stop offset="1" stop-color="#D3D1D1" stop-opacity="0"/>
</linearGradient>
</defs>
</svg>
