<svg width="589" height="309" viewBox="0 0 589 309" fill="none" xmlns="http://www.w3.org/2000/svg">
<g filter="url(#filter0_f_883_287)">
<path d="M55.8186 41.2009C55.8186 55.4804 60.9031 68.7202 69.5712 79.6059C63.3214 78.1648 56.7592 77.3974 49.9938 77.3974C7.6325 77.3974 -26.7088 107.485 -26.7088 144.598C-26.7088 147.447 -26.5071 150.254 -26.1146 153.009C-37.1286 147.65 -49.8066 144.598 -63.2975 144.598C-105.659 144.598 -140 174.685 -140 211.799C-140 248.913 -105.659 279 -63.2975 279C-38.8034 279 -16.9909 268.94 -2.94742 253.279C8.07891 268.725 27.6671 279 49.9938 279C72.5052 279 92.2319 268.556 103.206 252.897C114.18 268.556 133.907 279 156.416 279C176.713 279 194.746 270.51 206.14 257.362C220.155 270.667 240.228 279 262.52 279C277.394 279 291.279 275.291 303.035 268.872C313.24 275.249 325.732 279 339.223 279C354.964 279 369.345 273.893 380.322 265.467C391.299 273.893 405.678 279 421.419 279C441.44 279 459.258 270.739 470.675 257.897C478.759 270.492 494.157 279 511.824 279C537.879 279 559 260.495 559 237.668C559 214.842 537.879 196.337 511.824 196.337C499.811 196.337 488.847 200.271 480.518 206.748C472.161 185.184 448.858 169.666 421.419 169.666L421.087 169.667C421.307 168.049 421.419 166.402 421.419 164.732C421.419 141.905 400.298 123.4 374.243 123.4C370.344 123.4 366.556 123.814 362.932 124.596C356.442 108.564 338.981 97.0824 318.457 97.0824C317.28 97.0824 316.114 97.1202 314.958 97.1944C307.916 82.1292 291.014 71.5166 271.282 71.5166C265.738 71.5166 260.418 72.3541 255.476 73.8936C251.146 54.9821 232.083 40.7369 209.222 40.7369C208.937 3.837 174.705 -26 132.521 -26C90.1599 -26 55.8186 4.08718 55.8186 41.2009Z" fill="url(#paint0_linear_883_287)"/>
</g>
<defs>
<filter id="filter0_f_883_287" x="-170" y="-56" width="759" height="365" filterUnits="userSpaceOnUse" color-interpolation-filters="sRGB">
<feFlood flood-opacity="0" result="BackgroundImageFix"/>
<feBlend mode="normal" in="SourceGraphic" in2="BackgroundImageFix" result="shape"/>
<feGaussianBlur stdDeviation="15" result="effect1_foregroundBlur_883_287"/>
</filter>
<linearGradient id="paint0_linear_883_287" x1="209.5" y1="-26" x2="493.963" y2="544.156" gradientUnits="userSpaceOnUse">
<stop stop-color="#D9D9D9"/>
<stop offset="1" stop-color="#D3D1D1" stop-opacity="0"/>
</linearGradient>
</defs>
</svg>
