<svg width="430" height="640" viewBox="0 0 430 640" fill="none" xmlns="http://www.w3.org/2000/svg">
<g opacity="0.49" filter="url(#filter0_f_682_899)">
<path d="M55.0483 408.441C105.112 425.98 131.003 476.756 110.294 522.899C89.585 569.042 31.3467 590.345 -18.7172 572.806C-68.781 555.267 -94.6714 504.491 -73.9627 458.348C-53.254 412.205 4.98443 390.903 55.0483 408.441Z" stroke="url(#paint0_linear_682_899)" stroke-width="20"/>
<path d="M122.637 586.637C158.22 561.568 209.33 567.093 236.973 597.72C264.614 628.347 259.334 673.601 223.751 698.67C188.168 723.739 137.058 718.214 109.416 687.587C81.7741 656.96 87.0542 611.706 122.637 586.637Z" stroke="url(#paint1_linear_682_899)" stroke-width="20"/>
<path d="M239.053 441.976C267.306 448.898 285.299 475.297 276.857 502.195C268.414 529.092 237.602 543.533 209.35 536.61C181.097 529.688 163.104 503.289 171.546 476.392C179.988 449.495 210.8 435.054 239.053 441.976Z" stroke="url(#paint2_linear_682_899)" stroke-width="20"/>
<path d="M-13.4946 442.817C-37.3254 451.986 -33.6848 463.313 -38.0038 461.8C-51.8393 456.953 -37.6157 437.137 -18.3635 429.729C0.888663 422.322 25.7792 429.606 21.617 438.879C18.32 446.224 12.1677 432.942 -13.4946 442.817Z" fill="url(#paint3_linear_682_899)"/>
<path d="M121.752 641.796C119.496 659.946 129.78 662.203 126.891 664.237C117.639 670.756 107.786 654.255 109.608 639.592C111.431 624.93 126.955 612.636 132.551 618.837C136.985 623.749 124.182 622.251 121.752 641.796Z" fill="url(#paint4_linear_682_899)"/>
<path d="M205.709 465.832C194.415 471.515 196.91 476.975 194.671 476.426C187.499 474.669 193.373 464.146 202.498 459.555C211.622 454.964 224.437 457.411 222.928 462.218C221.733 466.025 217.871 459.712 205.709 465.832Z" fill="url(#paint5_linear_682_899)"/>
<ellipse cx="13.3235" cy="12.1771" rx="13.3235" ry="12.1771" transform="matrix(0.943761 0.330628 -0.409448 0.912333 74.4258 476.884)" fill="url(#paint6_linear_682_899)"/>
<ellipse cx="9.9147" cy="10.3756" rx="9.9147" ry="10.3756" transform="matrix(0.848101 -0.597511 0.646246 0.71603 175.256 602.137)" fill="url(#paint7_linear_682_899)"/>
<ellipse cx="6.65605" cy="6.09588" rx="6.65605" ry="6.09588" transform="matrix(0.979244 0.239928 -0.296513 0.944684 248.314 475.269)" fill="url(#paint8_linear_682_899)"/>
<path d="M40.4989 550.111C7.54106 562.374 -11.9042 558.996 -16.6352 549.071C-21.3661 539.145 1.66606 550.048 34.6239 537.785C67.5817 525.523 74.8474 503.347 79.5783 513.273C84.3092 523.198 73.4567 537.848 40.4989 550.111Z" fill="url(#paint9_linear_682_899)"/>
<path d="M230.025 652.876C226.577 677.812 216.256 688.331 206.636 687.292C197.016 686.254 214.631 676.523 218.078 651.587C221.526 626.651 207.08 613.46 216.7 614.498C226.32 615.536 233.472 627.941 230.025 652.876Z" fill="url(#paint10_linear_682_899)"/>
<path d="M239.281 518.636C223.636 526.288 213.764 525.526 210.812 520.814C207.86 516.103 219.97 520.437 235.615 512.785C251.26 505.134 253.532 493.766 256.484 498.477C259.436 503.189 254.926 510.985 239.281 518.636Z" fill="url(#paint11_linear_682_899)"/>
</g>
<g filter="url(#filter1_i_682_899)">
<path d="M380.67 218.756C406.681 216.66 411.119 209.862 415.002 201.729C418.876 193.615 445.087 131.047 446.683 127.377C451.322 130.589 457.225 132.651 462.428 134.468L462.429 134.468C464.141 135.066 465.777 135.638 467.268 136.215C473.647 138.686 486.259 145.813 491.768 149.067C490.512 146.978 478.122 137.987 471.815 134.679C465.507 131.371 454.651 121.817 458.247 112.475C460.549 106.496 465.985 94.1563 469.872 85.481C481.329 86.6684 490.741 90.4298 494.642 92.5843C507.48 98.605 515.772 107.351 518.314 110.972C519.603 111.968 521.04 116.83 516.475 128.31C506.071 157.363 504.349 151.902 502.078 151.621C501.013 153.77 476.406 204.946 470.58 222.565C464.754 240.184 463.85 248.703 476.993 258.964C512.123 296.306 502.702 346.315 489.809 378.083C445.694 486.779 368.864 682.819 356.432 716.359C336.545 751.024 291.794 732.5 230.522 700.749C155.342 661.79 155.377 631.668 159.692 621.653C196.39 536.472 274.079 372.864 292.925 326.703C316.08 275.085 335.827 223.142 380.67 218.756Z" fill="url(#paint12_linear_682_899)"/>
</g>
<g filter="url(#filter2_i_682_899)">
<path d="M470.038 83.5965C481.672 84.8021 491.265 88.6067 495.387 90.8709C508.262 96.9211 516.712 105.666 519.571 109.637C520.163 110.193 520.59 110.988 520.87 111.876C521.195 112.906 521.369 114.194 521.34 115.747C521.284 118.843 520.422 123.17 518.093 129.033C515.489 136.303 513.413 141.46 511.72 145.099C510.04 148.712 508.681 150.958 507.479 152.289C506.208 153.697 504.929 154.263 503.579 154.058C503.352 154.023 503.138 153.967 502.947 153.906C501.046 157.852 495.575 169.307 489.682 182.134C482.656 197.428 475.1 214.519 472.229 223.202C469.299 232.06 467.784 238.178 468.409 243.275C468.99 248.014 471.483 252.186 477.431 256.965L478.017 257.429L478.125 257.513L478.22 257.614C514.166 295.824 504.383 346.884 491.412 378.844C447.299 487.534 370.479 683.552 358.057 717.064L358 717.217L357.92 717.357C352.735 726.395 345.871 732.037 337.499 734.819C329.181 737.584 319.497 737.486 308.677 735.322C287.08 731.002 260.369 718.315 229.764 702.456C192.057 682.916 172.96 665.471 163.862 651.434C154.714 637.321 155.641 626.571 158.104 620.853L159.855 616.802C178.251 574.352 205.897 514.223 231.435 458.703C257.813 401.355 281.92 348.968 291.322 325.939L291.335 325.908L291.348 325.877C302.881 300.169 313.694 274.066 327.248 253.905C340.844 233.68 357.395 219.131 380.512 216.87L380.526 216.869L380.54 216.868C393.457 215.827 400.76 213.631 405.268 210.861C409.671 208.155 411.557 204.816 413.445 200.861C417.303 192.78 443.459 130.34 445.098 126.571L445.946 124.619L447.627 125.783C452.039 128.838 457.712 130.831 462.965 132.666L462.965 132.666L462.967 132.667C464.673 133.263 466.337 133.844 467.858 134.433L467.859 134.433C465.169 132.573 462.255 130.021 459.97 127.05C456.76 122.877 454.457 117.393 456.63 111.748C458.955 105.71 464.414 93.3176 468.295 84.6556L468.826 83.4707L470.038 83.5965ZM470.913 87.5024C467.073 96.09 462.04 107.55 459.864 113.203C458.441 116.899 459.767 120.863 462.664 124.629C465.53 128.357 469.608 131.418 472.579 132.976C475.84 134.686 480.593 137.817 484.659 140.756C486.7 142.231 488.596 143.679 490.071 144.899C490.808 145.508 491.456 146.075 491.971 146.569C492.444 147.022 492.938 147.539 493.237 148.036L490.928 150.729C485.396 147.461 472.905 140.41 466.677 137.998C465.582 137.574 464.404 137.151 463.158 136.714L461.89 136.27L461.89 136.27C457.328 134.677 451.997 132.824 447.459 130.082C442.701 141.328 420.141 195.093 416.558 202.598C414.563 206.776 412.288 210.902 406.999 214.153C401.817 217.337 393.9 219.586 380.818 220.642C359.097 222.77 343.356 236.385 330.081 256.131C316.766 275.936 306.129 301.604 294.511 327.505C285.056 350.656 260.908 403.129 234.571 460.389C208.201 517.717 179.617 579.889 161.279 622.452C159.428 626.75 158.18 636.069 166.73 649.261C175.33 662.528 193.806 679.623 231.278 699.041C261.946 714.933 288.247 727.385 309.314 731.599C319.827 733.702 328.89 733.719 336.47 731.2C343.956 728.712 350.116 723.71 354.864 715.496C367.488 681.473 444.156 485.854 488.205 377.322C501.01 345.772 510.062 296.873 475.852 260.408C469.157 255.154 465.709 250.075 464.936 243.773C464.184 237.64 466.033 230.689 468.93 221.928C471.885 212.992 479.546 195.686 486.546 180.45C493.563 165.174 499.99 151.824 500.534 150.727L501.095 149.593L502.277 149.74C502.826 149.808 503.317 150.027 503.555 150.127C503.864 150.257 503.975 150.294 504.065 150.308C504.103 150.313 504.134 150.318 504.217 150.281C504.329 150.23 504.578 150.08 504.973 149.643C505.786 148.743 506.95 146.924 508.59 143.398C510.215 139.906 512.25 134.863 514.841 127.627L514.853 127.594L514.865 127.563C517.093 121.959 517.794 118.122 517.838 115.673C517.86 114.451 517.719 113.619 517.554 113.098C517.382 112.551 517.221 112.455 517.295 112.512L517.079 112.345L516.919 112.117C514.558 108.755 506.506 100.212 493.945 94.3214L493.894 94.2976L493.845 94.2707C490.27 92.2962 481.595 88.7953 470.913 87.5024Z" fill="white"/>
</g>
<path fill-rule="evenodd" clip-rule="evenodd" d="M325.38 449.058C352.414 426.606 407.229 379.634 410.22 371.363C413.958 361.025 422.806 337.638 436.263 322.384C440.671 317.387 444.219 312.595 446.973 308.406L442.762 371.46L224.107 666.097C217.085 663.67 200.804 656.483 191.859 647.155C182.914 637.827 179.033 624.084 178.211 618.378L325.38 449.058Z" fill="url(#paint13_linear_682_899)"/>
<path fill-rule="evenodd" clip-rule="evenodd" d="M442.762 371.46L446.973 308.406C450.946 302.364 453.267 297.576 454.136 295.234L462.105 286.933C466.069 292.199 475.159 303.473 479.809 306.442C484.459 309.411 490.466 308.025 492.888 306.962L495.178 314.382C487.939 318.663 457.218 354.218 442.762 371.46Z" fill="url(#paint14_linear_682_899)"/>
<path fill-rule="evenodd" clip-rule="evenodd" d="M410.22 371.363C407.229 379.634 352.414 426.606 325.38 449.058L424.768 284.362C426.733 287.016 432.397 292.539 439.338 293.399L454.136 295.234C453.267 297.576 450.946 302.364 446.973 308.406C444.219 312.595 440.671 317.387 436.263 322.384C422.806 337.638 413.958 361.025 410.22 371.363Z" fill="url(#paint15_linear_682_899)"/>
<path opacity="0.3" d="M-324.074 364.169C-385.28 356.792 -368.587 374.005 -443.704 396.137V1077.3H721.999V300.232C711.798 268.264 681.38 206.295 641.318 214.164C591.24 224.001 574.547 263.346 516.123 300.232C457.699 337.119 427.096 300.232 360.325 300.232C293.555 300.232 215.656 344.496 148.885 344.496C82.1143 344.496 121.064 300.232 93.2427 300.232C65.4216 300.232 20.9079 329.742 -84.8123 344.496C-190.532 359.25 -184.968 327.283 -229.482 329.742C-273.996 332.201 -262.867 371.546 -324.074 364.169Z" fill="url(#paint16_linear_682_899)"/>
<path opacity="0.2" d="M-358.564 377.783C-419.77 370.406 -403.078 387.619 -478.194 409.751V1090.92H687.509V313.847C677.308 281.879 646.89 219.91 606.828 227.779C556.75 237.615 540.057 276.961 481.633 313.847C423.209 350.733 392.606 313.847 325.835 313.847C259.064 313.847 181.165 358.11 114.395 358.11C47.624 358.11 86.5735 313.847 58.7524 313.847C30.9314 313.847 -13.5823 343.356 -119.302 358.11C-225.023 372.865 -219.458 340.897 -263.972 343.356C-308.486 345.815 -297.357 385.16 -358.564 377.783Z" fill="url(#paint17_linear_682_899)"/>
<path opacity="0.5" d="M-269.232 370.101C-288.452 369.005 -384.189 393.385 -429.655 405.711V1076.5H684.861C687.986 802.556 692.362 256.954 684.861 266.068C675.484 277.46 608.678 278.496 566.485 282.638C524.292 286.781 448.11 295.066 401.229 310.601C354.347 326.136 226.596 323.029 189.09 321.993C151.585 320.958 82.6116 341.339 52.3871 338.6C22.1627 335.861 -87.1105 355.036 -115.785 361.199C-144.46 367.362 -245.208 371.471 -269.232 370.101Z" fill="url(#paint18_linear_682_899)"/>
<defs>
<filter id="filter0_f_682_899" x="-109.454" y="374.649" width="1199.68" height="459.956" filterUnits="userSpaceOnUse" color-interpolation-filters="sRGB">
<feFlood flood-opacity="0" result="BackgroundImageFix"/>
<feBlend mode="normal" in="SourceGraphic" in2="BackgroundImageFix" result="shape"/>
<feGaussianBlur stdDeviation="9" result="effect1_foregroundBlur_682_899"/>
</filter>
<filter id="filter1_i_682_899" x="158.182" y="85.4814" width="375.403" height="663.539" filterUnits="userSpaceOnUse" color-interpolation-filters="sRGB">
<feFlood flood-opacity="0" result="BackgroundImageFix"/>
<feBlend mode="normal" in="SourceGraphic" in2="BackgroundImageFix" result="shape"/>
<feColorMatrix in="SourceAlpha" type="matrix" values="0 0 0 0 0 0 0 0 0 0 0 0 0 0 0 0 0 0 127 0" result="hardAlpha"/>
<feOffset dx="27.9852" dy="17.1533"/>
<feGaussianBlur stdDeviation="6.9963"/>
<feComposite in2="hardAlpha" operator="arithmetic" k2="-1" k3="1"/>
<feColorMatrix type="matrix" values="0 0 0 0 1 0 0 0 0 1 0 0 0 0 1 0 0 0 0.8 0"/>
<feBlend mode="normal" in2="shape" result="effect1_innerShadow_682_899"/>
</filter>
<filter id="filter2_i_682_899" x="156.429" y="83.4707" width="378.907" height="667.444" filterUnits="userSpaceOnUse" color-interpolation-filters="sRGB">
<feFlood flood-opacity="0" result="BackgroundImageFix"/>
<feBlend mode="normal" in="SourceGraphic" in2="BackgroundImageFix" result="shape"/>
<feColorMatrix in="SourceAlpha" type="matrix" values="0 0 0 0 0 0 0 0 0 0 0 0 0 0 0 0 0 0 127 0" result="hardAlpha"/>
<feOffset dx="27.9852" dy="17.1533"/>
<feGaussianBlur stdDeviation="6.9963"/>
<feComposite in2="hardAlpha" operator="arithmetic" k2="-1" k3="1"/>
<feColorMatrix type="matrix" values="0 0 0 0 1 0 0 0 0 1 0 0 0 0 1 0 0 0 0.8 0"/>
<feBlend mode="normal" in2="shape" result="effect1_innerShadow_682_899"/>
</filter>
<linearGradient id="paint0_linear_682_899" x1="161.058" y1="518.785" x2="-150.727" y2="524.53" gradientUnits="userSpaceOnUse">
<stop stop-color="white"/>
<stop offset="1" stop-color="#9BD1DD"/>
</linearGradient>
<linearGradient id="paint1_linear_682_899" x1="251.649" y1="566.679" x2="153.167" y2="768.859" gradientUnits="userSpaceOnUse">
<stop stop-color="white"/>
<stop offset="1" stop-color="#9BD1DD"/>
</linearGradient>
<linearGradient id="paint2_linear_682_899" x1="296.947" y1="496.554" x2="142.847" y2="518.162" gradientUnits="userSpaceOnUse">
<stop stop-color="white"/>
<stop offset="1" stop-color="#9BD1DD"/>
</linearGradient>
<linearGradient id="paint3_linear_682_899" x1="18.5081" y1="428.509" x2="-82.3607" y2="480.239" gradientUnits="userSpaceOnUse">
<stop stop-color="white"/>
<stop offset="1" stop-color="#9BD1DD"/>
</linearGradient>
<linearGradient id="paint4_linear_682_899" x1="123.226" y1="616.635" x2="116.402" y2="697.945" gradientUnits="userSpaceOnUse">
<stop stop-color="white"/>
<stop offset="1" stop-color="#9BD1DD"/>
</linearGradient>
<linearGradient id="paint5_linear_682_899" x1="220.756" y1="457.209" x2="174.138" y2="488.295" gradientUnits="userSpaceOnUse">
<stop stop-color="white"/>
<stop offset="1" stop-color="#9BD1DD"/>
</linearGradient>
<linearGradient id="paint6_linear_682_899" x1="13.3235" y1="0" x2="13.5347" y2="40.6308" gradientUnits="userSpaceOnUse">
<stop stop-color="white"/>
<stop offset="1" stop-color="#9BD1DD"/>
</linearGradient>
<linearGradient id="paint7_linear_682_899" x1="9.9147" y1="0" x2="10.1207" y2="34.6194" gradientUnits="userSpaceOnUse">
<stop stop-color="white"/>
<stop offset="1" stop-color="#9BD1DD"/>
</linearGradient>
<linearGradient id="paint8_linear_682_899" x1="6.65605" y1="0" x2="6.76197" y2="20.3399" gradientUnits="userSpaceOnUse">
<stop stop-color="white"/>
<stop offset="1" stop-color="#9BD1DD"/>
</linearGradient>
<linearGradient id="paint9_linear_682_899" x1="20.6663" y1="489.992" x2="63.2751" y2="598.356" gradientUnits="userSpaceOnUse">
<stop stop-color="white"/>
<stop offset="1" stop-color="#9BD1DD"/>
</linearGradient>
<linearGradient id="paint10_linear_682_899" x1="175.241" y1="641.209" x2="277.286" y2="652.963" gradientUnits="userSpaceOnUse">
<stop stop-color="white"/>
<stop offset="1" stop-color="#9BD1DD"/>
</linearGradient>
<linearGradient id="paint11_linear_682_899" x1="225.787" y1="489.682" x2="252.612" y2="542.014" gradientUnits="userSpaceOnUse">
<stop stop-color="white"/>
<stop offset="1" stop-color="#9BD1DD"/>
</linearGradient>
<linearGradient id="paint12_linear_682_899" x1="484.622" y1="692.697" x2="156.293" y2="211.287" gradientUnits="userSpaceOnUse">
<stop stop-color="#D9D9D9" stop-opacity="0.7"/>
<stop offset="1" stop-color="#737373" stop-opacity="0"/>
</linearGradient>
<linearGradient id="paint13_linear_682_899" x1="343.827" y1="153.754" x2="575.217" y2="517.376" gradientUnits="userSpaceOnUse">
<stop stop-color="#603C2A"/>
<stop offset="1" stop-color="#FFCC57"/>
</linearGradient>
<linearGradient id="paint14_linear_682_899" x1="343.827" y1="153.754" x2="575.217" y2="517.376" gradientUnits="userSpaceOnUse">
<stop offset="0.403846" stop-color="#603C2A"/>
<stop offset="1" stop-color="#FFCC57"/>
</linearGradient>
<linearGradient id="paint15_linear_682_899" x1="343.827" y1="153.754" x2="575.217" y2="517.376" gradientUnits="userSpaceOnUse">
<stop stop-color="#603C2A"/>
<stop offset="0.600962" stop-color="#FFCC57"/>
</linearGradient>
<linearGradient id="paint16_linear_682_899" x1="139.148" y1="213.48" x2="145.22" y2="1654.64" gradientUnits="userSpaceOnUse">
<stop stop-color="white"/>
<stop offset="1" stop-color="#9BD1DD"/>
</linearGradient>
<linearGradient id="paint17_linear_682_899" x1="104.657" y1="227.095" x2="110.73" y2="1668.25" gradientUnits="userSpaceOnUse">
<stop offset="0.0618338" stop-color="white"/>
<stop offset="1" stop-color="#9BD1DD"/>
</linearGradient>
<linearGradient id="paint18_linear_682_899" x1="623.374" y1="125.077" x2="21.5002" y2="1017.44" gradientUnits="userSpaceOnUse">
<stop offset="0.128671" stop-color="#9BD1DD"/>
<stop offset="0.383744" stop-color="#1390AE"/>
<stop offset="0.862071" stop-color="#1A748E"/>
</linearGradient>
</defs>
</svg>
