<svg width="1440" height="857" viewBox="0 0 1440 857" fill="none" xmlns="http://www.w3.org/2000/svg">
<g opacity="0.49" filter="url(#filter0_f_883_290)">
<path d="M110.394 678.349C175.452 699.432 209.604 760.672 182.368 816.808C155.131 872.945 78.908 898.418 13.8501 877.336C-51.2075 856.254 -85.3584 795.013 -58.1219 738.876C-30.8853 682.739 45.3367 657.267 110.394 678.349Z" stroke="url(#paint0_linear_883_290)" stroke-width="20"/>
<path d="M1390.03 877.227C1442.95 894.376 1471.17 944.386 1448.74 990.604C1426.32 1036.82 1363.84 1057.44 1310.92 1040.29C1258 1023.14 1229.78 973.133 1252.21 926.916C1274.63 880.698 1337.11 860.078 1390.03 877.227Z" stroke="url(#paint1_linear_883_290)" stroke-width="20"/>
<path d="M204.085 898.888C250.497 868.641 316.879 875.429 352.665 912.105C388.451 948.782 381.771 1003.18 335.359 1033.43C288.947 1063.68 222.565 1056.89 186.779 1020.21C150.993 983.535 157.672 929.135 204.085 898.888Z" stroke="url(#paint2_linear_883_290)" stroke-width="20"/>
<path d="M357.102 719.978C392.887 728.088 416.244 759.192 405.3 791.442C394.357 823.693 354.735 840.523 318.951 832.413C283.166 824.303 259.809 793.199 270.752 760.949C281.696 728.698 321.318 711.867 357.102 719.978Z" stroke="url(#paint3_linear_883_290)" stroke-width="20"/>
<path d="M19.7263 718.624C-12.1857 729.982 -7.31052 744.013 -13.0942 742.139C-31.6213 736.135 -12.5745 711.589 13.2063 702.413C38.987 693.237 72.3181 702.26 66.7444 713.746C62.3294 722.845 54.0908 706.393 19.7263 718.624Z" fill="url(#paint4_linear_883_290)"/>
<path d="M1318.03 882.755C1292.45 891.859 1296.36 903.105 1291.72 901.603C1276.87 896.79 1292.14 877.116 1312.8 869.762C1333.46 862.407 1360.18 869.639 1355.71 878.845C1352.17 886.138 1345.57 872.952 1318.03 882.755Z" fill="url(#paint5_linear_883_290)"/>
<path d="M313.263 747.133C298.139 754.172 301.48 760.935 298.482 760.256C288.878 758.079 296.744 745.045 308.963 739.357C321.181 733.67 338.342 736.702 336.321 742.656C334.721 747.372 329.55 739.552 313.263 747.133Z" fill="url(#paint6_linear_883_290)"/>
<ellipse cx="17.7002" cy="15.2953" rx="17.7002" ry="15.2953" transform="matrix(0.951297 0.308274 -0.436514 0.899697 137.461 760.822)" fill="url(#paint7_linear_883_290)"/>
<ellipse cx="8.83807" cy="7.66307" rx="8.83807" ry="7.66307" transform="matrix(0.987563 0.22382 -0.315859 0.930848 370.317 758.822)" fill="url(#paint8_linear_883_290)"/>
<path d="M92.0295 851.529C47.8955 866.718 21.8562 862.535 15.521 850.24C9.18581 837.946 40.0283 851.451 84.1623 836.261C128.296 821.072 138.026 793.603 144.361 805.898C150.696 818.192 136.164 836.339 92.0295 851.529Z" fill="url(#paint9_linear_883_290)"/>
<path d="M358.219 812.541C337.269 822.018 324.049 821.075 320.096 815.239C316.143 809.402 332.36 814.771 353.31 805.293C374.261 795.815 377.303 781.734 381.256 787.57C385.209 793.406 379.17 803.063 358.219 812.541Z" fill="url(#paint10_linear_883_290)"/>
</g>
<path d="M1273.96 76.6853C1260.71 107.504 1232.31 172.452 1224.73 185.694C1223.92 187.123 1222.93 188.344 1221.8 189.379C1221.18 188.822 1220.51 188.202 1219.78 187.532L1219.78 187.53L1219.78 187.529C1213.23 181.5 1202.33 171.459 1192.64 167.082C1180.61 161.648 1164.67 157.247 1154.36 156.599C1154.67 154.017 1155.42 151.312 1156.73 148.496C1162.05 136.997 1177.95 102.952 1191.38 74.2226C1198.65 72.5838 1201.44 65.3209 1203.21 60.7235L1203.21 60.7215L1203.21 60.7186C1203.62 59.6506 1203.97 58.7268 1204.32 58.0511C1204.63 57.4299 1204.96 56.7255 1205.3 55.9867L1205.3 55.9856L1205.3 55.9853C1206.95 52.4061 1208.98 48.0198 1212.09 48.3771L1229.01 50.3172C1231.92 50.6505 1233.05 47.4591 1233.38 44.356C1237.4 45.3747 1241.71 46.834 1246.26 48.8629C1266.22 57.7765 1273.04 71.1252 1273.96 76.6853Z" fill="url(#paint11_linear_883_290)"/>
<g filter="url(#filter1_i_883_290)">
<path d="M1063.11 270.968C1097.94 268.372 1103.88 259.952 1109.08 249.878C1114.27 239.827 1149.37 162.326 1151.51 157.779C1157.72 161.758 1165.62 164.312 1172.59 166.563L1172.59 166.563C1174.89 167.304 1177.08 168.012 1179.07 168.727C1187.62 171.787 1204.5 180.615 1211.88 184.646C1210.2 182.058 1193.61 170.921 1185.16 166.824C1176.72 162.727 1162.18 150.892 1166.99 139.321C1170.08 131.915 1177.35 116.629 1182.56 105.884C1197.9 107.354 1210.51 112.013 1215.73 114.682C1232.92 122.14 1244.03 132.974 1247.43 137.458C1249.16 138.692 1251.08 144.715 1244.97 158.935C1231.03 194.922 1228.73 188.158 1225.69 187.809C1224.26 190.472 1191.31 253.862 1183.51 275.686C1175.71 297.511 1174.5 308.063 1192.1 320.773C1239.14 367.028 1226.52 428.973 1209.26 468.323C1150.18 602.963 1047.3 845.793 1030.65 887.338C1004.02 930.277 944.095 907.332 862.045 868.002C761.371 819.745 761.419 782.433 767.197 770.028C816.339 664.517 920.373 461.859 945.609 404.68C976.617 340.742 1003.06 276.401 1063.11 270.968Z" fill="url(#paint12_linear_883_290)"/>
</g>
<g filter="url(#filter2_i_883_290)">
<path d="M1182.78 103.549C1198.36 105.042 1211.21 109.755 1216.73 112.559C1233.97 120.054 1245.28 130.886 1249.11 135.804C1249.91 136.493 1250.48 137.479 1250.85 138.577C1251.29 139.854 1251.52 141.449 1251.48 143.373C1251.41 147.208 1250.25 152.567 1247.13 159.83C1243.65 168.835 1240.87 175.223 1238.6 179.731C1236.35 184.205 1234.53 186.988 1232.92 188.636C1231.22 190.381 1229.51 191.081 1227.7 190.827C1227.39 190.785 1227.11 190.715 1226.85 190.64C1224.31 195.528 1216.98 209.716 1209.09 225.605C1199.68 244.549 1189.56 265.72 1185.72 276.475C1181.79 287.447 1179.76 295.026 1180.6 301.339C1181.38 307.209 1184.72 312.377 1192.68 318.296L1193.47 318.872L1193.61 318.976L1193.74 319.101C1241.88 366.43 1228.78 429.678 1211.41 469.265C1152.33 603.897 1049.46 846.701 1032.83 888.211L1032.75 888.4L1032.64 888.574C1025.7 899.769 1016.51 906.758 1005.3 910.204C994.16 913.629 981.192 913.508 966.704 910.827C937.782 905.476 902.014 889.761 861.031 870.116C810.536 845.912 784.965 824.303 772.781 806.916C760.531 789.435 761.772 776.119 765.07 769.037L767.415 764.018C792.049 711.437 829.071 636.956 863.268 568.185C898.591 497.149 930.873 432.259 943.463 403.733L943.48 403.695L943.499 403.657C958.942 371.812 973.421 339.479 991.571 314.506C1009.78 289.454 1031.94 271.433 1062.9 268.632L1062.92 268.63L1062.94 268.629C1080.23 267.34 1090.01 264.62 1096.05 261.188C1101.95 257.837 1104.47 253.701 1107 248.802C1112.17 238.793 1147.19 161.449 1149.39 156.781L1150.52 154.362L1152.77 155.804C1158.68 159.588 1166.28 162.058 1173.31 164.33L1173.31 164.33L1173.31 164.331C1175.6 165.069 1177.83 165.789 1179.86 166.519L1179.87 166.519C1176.26 164.215 1172.36 161.054 1169.3 157.374C1165 152.205 1161.92 145.412 1164.83 138.42C1167.94 130.94 1175.25 115.59 1180.45 104.861L1181.16 103.393L1182.78 103.549ZM1183.95 108.387C1178.81 119.024 1172.07 133.22 1169.16 140.222C1167.25 144.8 1169.03 149.71 1172.91 154.375C1176.75 158.993 1182.21 162.784 1186.19 164.714C1190.55 166.833 1196.92 170.711 1202.36 174.351C1205.09 176.178 1207.63 177.971 1209.61 179.483C1210.6 180.238 1211.46 180.939 1212.15 181.551C1212.79 182.113 1213.45 182.753 1213.85 183.368L1210.76 186.704C1203.35 182.656 1186.62 173.923 1178.28 170.935C1176.82 170.409 1175.24 169.886 1173.57 169.344L1171.87 168.795L1171.87 168.795C1165.76 166.821 1158.62 164.526 1152.55 161.13C1146.18 175.059 1115.97 241.657 1111.17 250.953C1108.5 256.128 1105.45 261.24 1098.37 265.266C1091.43 269.21 1080.83 271.997 1063.31 273.304C1034.22 275.94 1013.14 292.805 995.366 317.263C977.536 341.796 963.292 373.59 947.733 405.673C935.073 434.35 902.736 499.346 867.467 570.274C832.156 641.285 793.878 718.296 769.323 771.018C766.843 776.341 765.172 787.885 776.622 804.225C788.138 820.659 812.88 841.834 863.058 865.887C904.125 885.572 939.345 900.996 967.557 906.215C981.635 908.82 993.77 908.842 1003.92 905.721C1013.95 902.639 1022.19 896.444 1028.55 886.269C1045.46 844.126 1148.12 601.817 1207.11 467.38C1224.26 428.3 1236.38 367.73 1190.57 322.562C1181.6 316.053 1176.99 309.762 1175.95 301.956C1174.94 294.359 1177.42 285.749 1181.3 274.897C1185.26 263.828 1195.52 242.391 1204.89 223.519C1214.29 204.597 1222.89 188.061 1223.62 186.702L1224.37 185.297L1225.95 185.479C1226.69 185.563 1227.35 185.835 1227.67 185.959C1228.08 186.119 1228.23 186.166 1228.35 186.182C1228.4 186.19 1228.44 186.195 1228.55 186.149C1228.7 186.087 1229.04 185.9 1229.56 185.36C1230.65 184.244 1232.21 181.991 1234.41 177.624C1236.58 173.298 1239.31 167.051 1242.78 158.088L1242.79 158.048L1242.81 158.009C1245.8 151.068 1246.73 146.315 1246.79 143.281C1246.82 141.767 1246.63 140.737 1246.41 140.092C1246.18 139.413 1245.97 139.295 1246.06 139.365L1245.78 139.159L1245.56 138.876C1242.4 134.712 1231.62 124.131 1214.8 116.833L1214.73 116.804L1214.66 116.771C1209.88 114.325 1198.26 109.988 1183.95 108.387Z" fill="white"/>
</g>
<path fill-rule="evenodd" clip-rule="evenodd" d="M1174.46 186.985C1167.33 183.639 1152.47 172.45 1154.36 156.599C1164.67 157.247 1180.61 161.649 1192.64 167.083C1202.33 171.46 1213.24 181.502 1219.78 187.53C1220.51 188.201 1221.18 188.822 1221.8 189.38C1209.83 200.34 1182.04 190.54 1174.46 186.985Z" fill="url(#paint13_linear_883_290)"/>
<path fill-rule="evenodd" clip-rule="evenodd" d="M1169.81 105.485C1174.19 105.327 1178.47 105.492 1182.56 105.884C1177.35 116.63 1170.08 131.915 1166.99 139.321C1162.18 150.892 1176.72 162.727 1185.16 166.825C1193.61 170.922 1210.2 182.059 1211.88 184.647C1204.5 180.616 1187.62 171.788 1179.07 168.727C1177.08 168.012 1174.89 167.304 1172.59 166.563C1165.62 164.312 1157.72 161.759 1151.51 157.78L1151.52 157.75C1152.68 155.301 1151.71 154.411 1150.57 153.366C1149.75 152.61 1148.84 151.772 1148.58 150.202C1148.08 147.139 1154.59 134.675 1163.57 117.481C1165.54 113.695 1167.64 109.68 1169.81 105.485Z" fill="url(#paint14_linear_883_290)"/>
<path d="M1184.67 106.906C1179.46 117.668 1172.21 132.89 1169.16 140.222C1167.25 144.8 1169.03 149.711 1172.91 154.376C1176.75 158.993 1182.21 162.785 1186.19 164.714C1190.55 166.833 1196.92 170.711 1202.36 174.352C1205.1 176.179 1207.63 177.972 1209.61 179.483C1210.6 180.238 1211.46 180.939 1212.15 181.552C1212.79 182.113 1213.45 182.753 1213.85 183.368L1210.76 186.704C1203.35 182.656 1186.62 173.923 1178.28 170.935C1176.33 170.235 1174.17 169.538 1171.87 168.795C1164.97 166.565 1156.76 163.927 1150.24 159.754L1148.51 158.645L1149.39 156.782L1149.4 156.752L1149.4 156.749C1149.66 156.189 1149.7 155.916 1149.7 155.824C1149.68 155.802 1149.65 155.757 1149.59 155.683C1149.52 155.608 1149.45 155.531 1149.35 155.437L1148.98 155.093C1148.16 154.334 1146.66 153.017 1146.27 150.579C1146.13 149.751 1146.25 148.87 1146.42 148.115C1146.6 147.309 1146.89 146.398 1147.24 145.412C1147.96 143.44 1149.05 140.978 1150.4 138.133C1153.11 132.436 1157.01 124.976 1161.49 116.395C1163.46 112.608 1165.56 108.597 1167.72 104.408L1168.35 103.19L1169.72 103.141C1174.22 102.979 1178.61 103.149 1182.78 103.55L1186.14 103.871L1184.67 106.906ZM1178.96 107.952C1176.44 107.797 1173.87 107.736 1171.25 107.791C1169.31 111.546 1167.43 115.152 1165.65 118.566C1161.15 127.179 1157.3 134.548 1154.64 140.147C1153.3 142.95 1152.29 145.254 1151.65 147.017C1151.33 147.9 1151.12 148.599 1151 149.128C1150.89 149.645 1150.9 149.843 1150.9 149.835L1150.92 149.951C1151.05 150.572 1151.39 150.932 1152.16 151.639C1152.63 152.074 1153.64 152.936 1154.11 154.229C1154.41 155.05 1154.45 155.887 1154.31 156.736C1159.96 160.004 1166.87 162.251 1173.31 164.331C1175.6 165.069 1177.83 165.789 1179.86 166.519C1176.26 164.215 1172.36 161.055 1169.3 157.375C1165 152.205 1161.92 145.413 1164.83 138.42C1167.65 131.633 1173.93 118.367 1178.96 107.952Z" fill="url(#paint15_linear_883_290)"/>
<path opacity="0.9" fill-rule="evenodd" clip-rule="evenodd" d="M1233.38 44.3559C1233.05 47.4591 1231.91 50.6504 1229.01 50.3171L1212.09 48.377C1208.98 48.0197 1206.95 52.4063 1205.3 55.9855C1204.96 56.7248 1204.63 57.4296 1204.32 58.051C1203.97 58.7278 1203.62 59.6534 1203.2 60.7234C1201.44 65.3208 1198.65 72.5838 1191.38 74.2226C1196.73 62.7784 1201.69 52.1774 1205.43 44.1807C1209.51 42.5175 1219.74 40.8991 1233.38 44.3559Z" fill="url(#paint16_linear_883_290)"/>
<path fill-rule="evenodd" clip-rule="evenodd" d="M989.07 556.239C1025.27 528.427 1098.68 470.244 1102.68 459.999C1107.69 447.193 1119.53 418.225 1137.55 399.33C1143.46 393.14 1148.21 387.205 1151.9 382.016L1146.26 460.12L853.455 825.08C844.052 822.073 822.25 813.172 810.272 801.617C798.293 790.063 793.097 773.039 791.996 765.971L989.07 556.239Z" fill="url(#paint17_linear_883_290)"/>
<path fill-rule="evenodd" clip-rule="evenodd" d="M1146.26 460.12L1151.9 382.016C1157.22 374.532 1160.32 368.601 1161.49 365.7L1172.16 355.417C1177.47 361.94 1189.64 375.905 1195.87 379.583C1202.09 383.26 1210.14 381.544 1213.38 380.227L1216.45 389.418C1206.75 394.721 1165.62 438.762 1146.26 460.12Z" fill="url(#paint18_linear_883_290)"/>
<path fill-rule="evenodd" clip-rule="evenodd" d="M1102.68 459.999C1098.68 470.244 1025.27 528.427 989.07 556.239L1122.16 352.233C1124.79 355.521 1132.38 362.362 1141.67 363.427L1161.49 365.7C1160.32 368.601 1157.22 374.532 1151.9 382.016C1148.21 387.205 1143.46 393.14 1137.55 399.33C1119.53 418.225 1107.69 447.193 1102.68 459.999Z" fill="url(#paint19_linear_883_290)"/>
<path opacity="0.3" d="M119.384 451.088C37.4225 441.95 59.7758 463.272 -40.8135 490.686V1334.43H1520.19V371.891C1506.53 332.293 1465.79 255.534 1412.15 265.281C1345.09 277.465 1322.73 326.201 1244.5 371.891C1166.26 417.581 1125.28 371.891 1035.87 371.891C946.454 371.891 842.139 426.72 752.726 426.72C663.313 426.72 715.47 371.891 678.215 371.891C640.96 371.891 581.351 408.444 439.781 426.72C298.21 444.996 305.661 405.398 246.053 408.444C186.444 411.49 201.346 460.226 119.384 451.088Z" fill="url(#paint20_linear_883_290)"/>
<path opacity="0.2" d="M73.1978 467.951C-8.76405 458.814 13.5893 480.135 -87 507.55V1351.3H1474V388.755C1460.34 349.156 1419.61 272.397 1365.96 282.144C1298.9 294.328 1276.55 343.065 1198.31 388.755C1120.07 434.445 1079.09 388.755 989.68 388.755C900.267 388.755 795.952 443.583 706.539 443.583C617.126 443.583 669.284 388.755 632.029 388.755C594.773 388.755 535.165 425.307 393.594 443.583C252.024 461.859 259.475 422.261 199.866 425.307C140.258 428.353 155.16 477.089 73.1978 467.951Z" fill="url(#paint21_linear_883_290)"/>
<path opacity="0.5" d="M192.823 458.437C167.086 457.08 38.8838 487.278 -22 502.547V1333.43H1470.45C1474.64 994.11 1480.5 318.284 1470.45 329.573C1457.9 343.685 1368.44 344.967 1311.94 350.099C1255.44 355.23 1153.42 365.493 1090.64 384.736C1027.86 403.978 856.788 400.13 806.565 398.847C756.342 397.564 663.979 422.81 623.505 419.417C583.031 416.024 436.703 439.776 398.305 447.41C359.907 455.044 224.994 460.134 192.823 458.437Z" fill="url(#paint22_linear_883_290)"/>
<defs>
<filter id="filter0_f_883_290" x="-96.0698" y="643.52" width="1581.09" height="551.1" filterUnits="userSpaceOnUse" color-interpolation-filters="sRGB">
<feFlood flood-opacity="0" result="BackgroundImageFix"/>
<feBlend mode="normal" in="SourceGraphic" in2="BackgroundImageFix" result="shape"/>
<feGaussianBlur stdDeviation="9" result="effect1_foregroundBlur_883_290"/>
</filter>
<filter id="filter1_i_883_290" x="765.174" y="105.884" width="497.959" height="818.574" filterUnits="userSpaceOnUse" color-interpolation-filters="sRGB">
<feFlood flood-opacity="0" result="BackgroundImageFix"/>
<feBlend mode="normal" in="SourceGraphic" in2="BackgroundImageFix" result="shape"/>
<feColorMatrix in="SourceAlpha" type="matrix" values="0 0 0 0 0 0 0 0 0 0 0 0 0 0 0 0 0 0 127 0" result="hardAlpha"/>
<feOffset dx="27.9852" dy="17.1533"/>
<feGaussianBlur stdDeviation="6.9963"/>
<feComposite in2="hardAlpha" operator="arithmetic" k2="-1" k3="1"/>
<feColorMatrix type="matrix" values="0 0 0 0 1 0 0 0 0 1 0 0 0 0 1 0 0 0 0.8 0"/>
<feBlend mode="normal" in2="shape" result="effect1_innerShadow_883_290"/>
</filter>
<filter id="filter2_i_883_290" x="762.828" y="103.393" width="502.651" height="823.409" filterUnits="userSpaceOnUse" color-interpolation-filters="sRGB">
<feFlood flood-opacity="0" result="BackgroundImageFix"/>
<feBlend mode="normal" in="SourceGraphic" in2="BackgroundImageFix" result="shape"/>
<feColorMatrix in="SourceAlpha" type="matrix" values="0 0 0 0 0 0 0 0 0 0 0 0 0 0 0 0 0 0 127 0" result="hardAlpha"/>
<feOffset dx="27.9852" dy="17.1533"/>
<feGaussianBlur stdDeviation="6.9963"/>
<feComposite in2="hardAlpha" operator="arithmetic" k2="-1" k3="1"/>
<feColorMatrix type="matrix" values="0 0 0 0 1 0 0 0 0 1 0 0 0 0 1 0 0 0 0.8 0"/>
<feBlend mode="normal" in2="shape" result="effect1_innerShadow_883_290"/>
</filter>
<linearGradient id="paint0_linear_883_290" x1="253.47" y1="812.726" x2="-164.019" y2="821.042" gradientUnits="userSpaceOnUse">
<stop stop-color="white"/>
<stop offset="1" stop-color="#9BD1DD"/>
</linearGradient>
<linearGradient id="paint1_linear_883_290" x1="1503.84" y1="986.719" x2="1169.22" y2="993.385" gradientUnits="userSpaceOnUse">
<stop stop-color="white"/>
<stop offset="1" stop-color="#9BD1DD"/>
</linearGradient>
<linearGradient id="paint2_linear_883_290" x1="374.782" y1="872.051" x2="258.729" y2="1129.62" gradientUnits="userSpaceOnUse">
<stop stop-color="white"/>
<stop offset="1" stop-color="#9BD1DD"/>
</linearGradient>
<linearGradient id="paint3_linear_883_290" x1="435.44" y1="785.189" x2="229.753" y2="816.369" gradientUnits="userSpaceOnUse">
<stop stop-color="white"/>
<stop offset="1" stop-color="#9BD1DD"/>
</linearGradient>
<linearGradient id="paint4_linear_883_290" x1="62.5813" y1="700.902" x2="-67.908" y2="773.248" gradientUnits="userSpaceOnUse">
<stop stop-color="white"/>
<stop offset="1" stop-color="#9BD1DD"/>
</linearGradient>
<linearGradient id="paint5_linear_883_290" x1="1352.38" y1="868.55" x2="1247.79" y2="926.537" gradientUnits="userSpaceOnUse">
<stop stop-color="white"/>
<stop offset="1" stop-color="#9BD1DD"/>
</linearGradient>
<linearGradient id="paint6_linear_883_290" x1="333.412" y1="736.452" x2="274.068" y2="779.233" gradientUnits="userSpaceOnUse">
<stop stop-color="white"/>
<stop offset="1" stop-color="#9BD1DD"/>
</linearGradient>
<linearGradient id="paint7_linear_883_290" x1="17.7002" y1="0" x2="17.951" y2="51.0354" gradientUnits="userSpaceOnUse">
<stop stop-color="white"/>
<stop offset="1" stop-color="#9BD1DD"/>
</linearGradient>
<linearGradient id="paint8_linear_883_290" x1="8.83807" y1="0" x2="8.96413" y2="25.5691" gradientUnits="userSpaceOnUse">
<stop stop-color="white"/>
<stop offset="1" stop-color="#9BD1DD"/>
</linearGradient>
<linearGradient id="paint9_linear_883_290" x1="65.4717" y1="777.06" x2="115.254" y2="913.935" gradientUnits="userSpaceOnUse">
<stop stop-color="white"/>
<stop offset="1" stop-color="#9BD1DD"/>
</linearGradient>
<linearGradient id="paint10_linear_883_290" x1="340.15" y1="776.675" x2="371.837" y2="843.506" gradientUnits="userSpaceOnUse">
<stop stop-color="white"/>
<stop offset="1" stop-color="#9BD1DD"/>
</linearGradient>
<linearGradient id="paint11_linear_883_290" x1="1257.73" y1="218.185" x2="1160.74" y2="-47.1852" gradientUnits="userSpaceOnUse">
<stop stop-color="#3C2012"/>
<stop offset="0.798084" stop-color="#EAB775"/>
</linearGradient>
<linearGradient id="paint12_linear_883_290" x1="1202.31" y1="858.029" x2="808.048" y2="233.074" gradientUnits="userSpaceOnUse">
<stop stop-color="#D9D9D9" stop-opacity="0.7"/>
<stop offset="1" stop-color="#737373" stop-opacity="0"/>
</linearGradient>
<linearGradient id="paint13_linear_883_290" x1="1168.31" y1="221.192" x2="1283.6" y2="4.38765" gradientUnits="userSpaceOnUse">
<stop offset="0.124015" stop-color="#3C2012"/>
<stop offset="0.798084" stop-color="#FCB900"/>
</linearGradient>
<linearGradient id="paint14_linear_883_290" x1="1183" y1="181.334" x2="1134.21" y2="39.5197" gradientUnits="userSpaceOnUse">
<stop stop-color="#FDEAEA"/>
<stop offset="1" stop-color="#737373" stop-opacity="0"/>
</linearGradient>
<linearGradient id="paint15_linear_883_290" x1="1043.11" y1="56.5274" x2="1066.46" y2="1023.23" gradientUnits="userSpaceOnUse">
<stop stop-color="white"/>
<stop offset="1" stop-color="#4D4D4D"/>
</linearGradient>
<linearGradient id="paint16_linear_883_290" x1="1214.41" y1="41.5533" x2="1210.41" y2="76.4057" gradientUnits="userSpaceOnUse">
<stop stop-color="white"/>
<stop offset="1" stop-color="#F3CC91"/>
</linearGradient>
<linearGradient id="paint17_linear_883_290" x1="1013.77" y1="190.452" x2="1290.41" y2="660.418" gradientUnits="userSpaceOnUse">
<stop stop-color="#603C2A"/>
<stop offset="1" stop-color="#FFCC57"/>
</linearGradient>
<linearGradient id="paint18_linear_883_290" x1="1013.77" y1="190.452" x2="1290.41" y2="660.418" gradientUnits="userSpaceOnUse">
<stop offset="0.403846" stop-color="#603C2A"/>
<stop offset="1" stop-color="#FFCC57"/>
</linearGradient>
<linearGradient id="paint19_linear_883_290" x1="1013.77" y1="190.452" x2="1290.41" y2="660.418" gradientUnits="userSpaceOnUse">
<stop stop-color="#603C2A"/>
<stop offset="0.600962" stop-color="#FFCC57"/>
</linearGradient>
<linearGradient id="paint20_linear_883_290" x1="739.687" y1="264.434" x2="746.644" y2="2049.57" gradientUnits="userSpaceOnUse">
<stop stop-color="white"/>
<stop offset="1" stop-color="#9BD1DD"/>
</linearGradient>
<linearGradient id="paint21_linear_883_290" x1="693.5" y1="281.297" x2="700.458" y2="2066.43" gradientUnits="userSpaceOnUse">
<stop offset="0.0618338" stop-color="white"/>
<stop offset="1" stop-color="#9BD1DD"/>
</linearGradient>
<linearGradient id="paint22_linear_883_290" x1="1388.12" y1="154.93" x2="665.899" y2="1312.54" gradientUnits="userSpaceOnUse">
<stop offset="0.128671" stop-color="#9BD1DD"/>
<stop offset="0.383744" stop-color="#1390AE"/>
<stop offset="0.862071" stop-color="#1A748E"/>
</linearGradient>
</defs>
</svg>
