<svg width="85" height="136" viewBox="0 0 85 136" fill="none" xmlns="http://www.w3.org/2000/svg">
<path d="M66.9321 3.95544C66.1075 8.69701 64.298 18.7078 63.6574 20.8186C63.5883 21.0464 63.4851 21.2523 63.3534 21.4383C63.2392 21.3857 63.1131 21.3269 62.9771 21.2633L62.9767 21.2631L62.9766 21.2631C61.752 20.6913 59.7125 19.7389 58.0746 19.5159C56.0411 19.2391 53.4538 19.2562 51.866 19.5685C51.8135 19.2025 51.8237 18.8023 51.913 18.3655C52.2779 16.5816 53.3808 11.2945 54.3134 6.83228C55.3527 6.32464 55.497 5.22008 55.5883 4.52089L55.5883 4.52059L55.5884 4.52015C55.6096 4.35773 55.628 4.21722 55.654 4.11121C55.678 4.01375 55.7003 3.90451 55.7236 3.78992L55.7236 3.78976L55.7236 3.78971C55.8366 3.23461 55.9751 2.55436 56.4613 2.48207L59.1016 2.08955C59.5553 2.02212 59.6041 1.54049 59.5349 1.10214C60.1836 1.08536 60.8943 1.11746 61.6613 1.21879C65.0313 1.66399 66.5794 3.22872 66.9321 3.95544Z" fill="url(#paint0_linear_253_3918)"/>
<g filter="url(#filter0_i_253_3918)">
<path d="M42.4225 38.8024C47.6054 37.0905 48.183 35.7047 48.5844 34.1209C48.9849 32.5407 51.3289 20.5476 51.4782 19.841C52.5733 20.1448 53.8704 20.1872 55.0137 20.2247L55.0138 20.2247C55.39 20.237 55.7495 20.2488 56.0798 20.2691C57.493 20.3562 60.3938 20.9092 61.6676 21.1748C61.313 20.8854 58.3686 20.0042 56.93 19.7712C55.4915 19.5382 52.8317 18.4813 53.1173 16.7072C53.3001 15.5717 53.8164 13.1925 54.1928 11.5164C56.5763 11.1208 58.6668 11.2691 59.5618 11.4316C62.4556 11.7851 64.5563 12.8383 65.2449 13.3207C65.5541 13.4227 66.0774 14.1737 65.6969 16.3615C64.9674 21.8382 64.3576 21.0005 63.8829 21.0711C63.769 21.4917 61.2084 31.4663 60.8641 34.7626C60.5197 38.0588 60.7418 39.5529 63.8996 40.6105C72.8124 45.1217 73.2804 54.1065 72.1746 60.1743C68.3907 80.9355 62.1218 118.237 61.194 124.582C58.8057 131.506 48.8351 130.693 34.8791 128.494C17.7554 125.796 16.3283 120.678 16.7278 118.752C20.125 102.371 28.1126 70.5334 29.7421 61.7108C31.987 51.7367 33.5241 41.8849 42.4225 38.8024Z" fill="url(#paint1_linear_253_3918)"/>
</g>
<g filter="url(#filter1_i_253_3918)">
<path d="M54.1371 11.188C56.5572 10.7863 58.6867 10.9324 59.6317 11.1021C62.5345 11.4586 64.667 12.5035 65.4368 13.0287C65.5836 13.0923 65.7081 13.2053 65.8071 13.3413C65.9222 13.4994 66.0189 13.7091 66.0871 13.9743C66.2231 14.5031 66.254 15.283 66.0602 16.4002C65.8774 17.7707 65.7013 18.7548 65.5309 19.4612C65.3617 20.1623 65.1927 20.6147 65.012 20.9034C64.8207 21.2089 64.5881 21.3715 64.304 21.4071C64.2563 21.4131 64.2102 21.4147 64.1684 21.4144C63.9702 22.1837 63.4047 24.4143 62.8186 26.9002C62.1199 29.864 61.3991 33.1608 61.2294 34.7852C61.0563 36.4423 61.0398 37.5605 61.4094 38.3936C61.7531 39.1682 62.4581 39.7469 63.8937 40.2484L64.0348 40.2968L64.0607 40.3055L64.0848 40.3176C73.2046 44.9335 73.6492 54.1159 72.5366 60.2202C68.753 80.9803 62.4848 118.278 61.5578 124.617L61.5535 124.646L61.5439 124.674C60.9212 126.479 59.7958 127.795 58.2281 128.704C56.6703 129.607 54.6989 130.096 52.3985 130.292C47.8064 130.684 41.7776 129.922 34.8067 128.824C26.2181 127.47 21.5091 125.503 18.9928 123.593C16.4629 121.673 16.1393 119.799 16.3674 118.699L16.5301 117.92C18.2448 109.751 20.9965 98.097 23.5393 87.336C26.1658 76.2207 28.5674 66.0664 29.3804 61.6649L29.3814 61.659L29.3827 61.653C30.5008 56.6854 31.4539 51.6882 33.2466 47.5575C35.045 43.4136 37.7135 40.0799 42.3008 38.4908L42.3035 38.4898L42.3063 38.4889C44.8803 37.6388 46.2588 36.8851 47.0424 36.1796C47.8079 35.4905 48.0318 34.8252 48.227 34.0549C48.6258 32.4814 50.9647 20.5127 51.1181 19.7872L51.1975 19.4113L51.5942 19.5214C52.6358 19.8103 53.8827 19.8532 55.0369 19.891L55.0371 19.891L55.0374 19.891C55.4123 19.9033 55.7779 19.9152 56.1149 19.936L56.1151 19.936C55.4802 19.7603 54.7668 19.4788 54.1613 19.0933C53.3108 18.5518 52.5818 17.7405 52.7544 16.6684C52.939 15.5216 53.4576 13.1323 53.8335 11.4587L53.8849 11.2298L54.1371 11.188ZM54.5007 11.8058C54.1298 13.4645 53.6533 15.6734 53.4805 16.7469C53.3674 17.4489 53.8255 18.053 54.5931 18.5417C55.3528 19.0254 56.3268 19.3327 57.0042 19.4425C57.7481 19.5629 58.8624 19.8469 59.8282 20.1342C60.3129 20.2783 60.7668 20.4253 61.1246 20.5557C61.3032 20.6208 61.4619 20.6832 61.59 20.7403C61.7075 20.7926 61.8325 20.8546 61.9168 20.9234L61.5762 21.5012C60.2971 21.2345 57.4244 20.6881 56.0448 20.6031C55.8022 20.5881 55.5428 20.5778 55.2689 20.5684L54.9904 20.5591L54.9903 20.5592C53.9879 20.5263 52.8171 20.4895 51.7648 20.2604C51.3339 22.4184 49.3122 32.7263 48.9419 34.1877C48.7357 35.0012 48.4702 35.8207 47.5507 36.6485C46.65 37.4594 45.1492 38.2542 42.5426 39.1154C38.2326 40.6091 35.6838 43.7422 33.9281 47.7878C32.1669 51.8458 31.2289 56.7599 30.1025 61.7647C29.2847 66.1896 26.879 76.3606 24.2565 87.459C21.6309 98.5705 18.7859 110.62 17.0884 118.805C16.9169 119.632 17.1072 121.28 19.4719 123.074C21.8503 124.879 26.4167 126.82 34.9516 128.165C41.9367 129.265 47.8712 130.009 52.3506 129.627C54.5858 129.436 56.4271 128.966 57.8467 128.143C59.2486 127.33 60.2615 126.16 60.8347 124.517C61.7785 118.08 68.0346 80.8589 71.8127 60.129C72.911 54.103 72.4212 45.3257 63.7369 40.9157C62.1269 40.3723 61.1849 39.6893 60.7279 38.6592C60.2831 37.6568 60.3276 36.3799 60.4988 34.7407C60.6735 33.0689 61.4053 29.7302 62.1014 26.7776C62.7993 23.8173 63.4688 21.2149 63.527 21.0002L63.587 20.7783L63.834 20.7416C63.9487 20.7246 64.0589 20.7362 64.1121 20.7407C64.181 20.7466 64.2053 20.7472 64.2242 20.7449C64.2321 20.7439 64.2387 20.743 64.2537 20.7324C64.2741 20.718 64.3177 20.6794 64.3769 20.5847C64.4992 20.3894 64.6491 20.0198 64.8143 19.3354C64.9779 18.6576 65.1511 17.6949 65.3328 16.3309L65.3336 16.3248L65.3346 16.3188C65.5204 15.2508 65.4799 14.5627 65.3722 14.1443C65.3185 13.9356 65.2502 13.8017 65.1921 13.7218C65.1309 13.6378 65.0938 13.6299 65.1114 13.6358L65.0596 13.6187L65.0162 13.5883C64.3767 13.1403 62.3346 12.1092 59.503 11.7634L59.4916 11.762L59.4803 11.76C58.6601 11.611 56.7316 11.4686 54.5007 11.8058Z" fill="white"/>
</g>
<path fill-rule="evenodd" clip-rule="evenodd" d="M56.0822 22.9521C54.8715 22.771 52.1883 21.8151 51.866 19.568C53.4537 19.2558 56.041 19.2386 58.0746 19.5154C59.7125 19.7384 61.7521 20.6908 62.9766 21.2627C63.1129 21.3263 63.239 21.3852 63.3534 21.4379C61.9595 23.4065 57.3685 23.1445 56.0822 22.9521Z" fill="url(#paint2_linear_253_3918)"/>
<path fill-rule="evenodd" clip-rule="evenodd" d="M52.2436 11.9581C52.9028 11.7657 53.5583 11.6218 54.193 11.5164C53.8166 13.1925 53.3003 15.5718 53.1175 16.7072C52.8319 18.4813 55.4917 19.5382 56.9302 19.7712C58.3688 20.0042 61.3132 20.8854 61.6678 21.1748C60.394 20.9092 57.4932 20.3563 56.08 20.2691C55.7497 20.2488 55.3901 20.237 55.0138 20.2247C53.8705 20.1873 52.5735 20.1448 51.4784 19.841L51.4794 19.8364C51.5604 19.4557 51.3792 19.3714 51.1667 19.2724C51.0127 19.2007 50.8423 19.1213 50.7431 18.9159C50.5495 18.5154 51.0574 16.5531 51.7581 13.8459C51.9124 13.2498 52.076 12.6177 52.2436 11.9581Z" fill="url(#paint3_linear_253_3918)"/>
<path d="M54.5524 11.5748C54.1754 13.2535 53.6615 15.6227 53.4805 16.7469C53.3675 17.4488 53.8255 18.053 54.5931 18.5417C55.3528 19.0254 56.3268 19.3327 57.0043 19.4424C57.7482 19.5629 58.8625 19.8469 59.8282 20.1341C60.3129 20.2783 60.7669 20.4253 61.1247 20.5557C61.3032 20.6207 61.4619 20.6832 61.59 20.7403C61.7075 20.7926 61.8324 20.8546 61.9168 20.9234L61.5762 21.5012C60.2971 21.2344 57.4245 20.6881 56.0448 20.603C55.7214 20.5831 55.3679 20.5715 54.9902 20.5591C53.858 20.5221 52.5109 20.48 51.3624 20.1614L51.057 20.0767L51.1181 19.7873L51.1191 19.7826L51.1191 19.7822C51.1377 19.6951 51.1321 19.6565 51.1283 19.6438C51.1256 19.6413 51.1192 19.6363 51.1067 19.6287C51.094 19.6209 51.0796 19.6132 51.0613 19.6041L50.9923 19.5713C50.838 19.4994 50.5606 19.377 50.4065 19.0582C50.3541 18.9499 50.3392 18.8243 50.3355 18.7142C50.3316 18.5968 50.3398 18.4607 50.3563 18.3117C50.3894 18.0132 50.4594 17.6334 50.5553 17.1906C50.7473 16.304 51.0513 15.1294 51.401 13.7783C51.5553 13.1822 51.7188 12.5507 51.8861 11.8919L51.9348 11.7005L52.1406 11.6404C52.8168 11.443 53.4882 11.2957 54.1371 11.188L54.6586 11.1015L54.5524 11.5748ZM53.726 11.9407C53.3387 12.0173 52.9459 12.1092 52.5515 12.2184C52.401 12.809 52.2542 13.3766 52.1151 13.9142C51.7641 15.2702 51.4639 16.4305 51.2751 17.3019C51.1807 17.7382 51.1161 18.0934 51.0865 18.3601C51.0717 18.4936 51.0665 18.5977 51.0691 18.6748C51.0716 18.7502 51.0811 18.7769 51.0803 18.7759L51.0881 18.791C51.1322 18.8709 51.197 18.9071 51.341 18.9742C51.4294 19.0153 51.6153 19.0944 51.7364 19.2533C51.8133 19.3542 51.8523 19.4673 51.8629 19.5894C52.8463 19.8174 53.9806 19.8564 55.0373 19.891C55.4122 19.9033 55.7779 19.9152 56.115 19.936C55.4801 19.7602 54.7668 19.4788 54.1614 19.0933C53.3108 18.5518 52.5818 17.7404 52.7544 16.6683C52.922 15.6278 53.3647 13.5643 53.726 11.9407Z" fill="url(#paint4_linear_253_3918)"/>
<path opacity="0.9" fill-rule="evenodd" clip-rule="evenodd" d="M59.5346 1.10151C59.6039 1.53985 59.555 2.02148 59.1014 2.08892L56.4611 2.48143C55.9748 2.55373 55.8363 3.23402 55.7234 3.78912C55.7 3.90377 55.6778 4.01307 55.6538 4.11058C55.6277 4.21675 55.6093 4.35753 55.588 4.52026C55.4967 5.21944 55.3525 6.32401 54.3132 6.83165C54.6847 5.05416 55.0292 3.40757 55.2892 2.16542C55.8452 1.77826 57.3332 1.15846 59.5346 1.10151Z" fill="url(#paint5_linear_253_3918)"/>
<path fill-rule="evenodd" clip-rule="evenodd" d="M42.1598 80.8009C46.5811 75.5782 55.4771 64.7428 55.6907 63.1822C55.9576 61.2314 56.6411 56.798 58.6477 53.5057C59.305 52.4272 59.7974 51.4284 60.1573 50.5733L62.3045 61.5023L31.9265 122.943C30.3847 122.897 26.736 122.525 24.4752 121.407C22.2143 120.289 20.7718 118.157 20.3332 117.231L42.1598 80.8009Z" fill="url(#paint6_linear_253_3918)"/>
<path fill-rule="evenodd" clip-rule="evenodd" d="M62.3045 61.5023L60.1573 50.5733C60.6764 49.34 60.9198 48.4058 60.9849 47.9627L62.2081 46.1374C63.2638 46.8252 65.6468 48.2662 66.7326 48.528C67.8183 48.7899 68.9723 48.2415 69.4136 47.9345L70.2319 49.0756C68.9656 50.1801 64.4194 57.8203 62.3045 61.5023Z" fill="url(#paint7_linear_253_3918)"/>
<path fill-rule="evenodd" clip-rule="evenodd" d="M55.6907 63.1822C55.4771 64.7428 46.5811 75.5782 42.1598 80.8009L54.5027 47.6471C55.0281 47.9954 56.4415 48.6382 57.892 48.4225L60.9849 47.9627C60.9198 48.4058 60.6764 49.34 60.1573 50.5733C59.7974 51.4284 59.305 52.4272 58.6477 53.5057C56.6411 56.798 55.9576 61.2314 55.6907 63.1822Z" fill="url(#paint8_linear_253_3918)"/>
<defs>
<filter id="filter0_i_253_3918" x="16.6741" y="11.2643" width="69.9228" height="132.79" filterUnits="userSpaceOnUse" color-interpolation-filters="sRGB">
<feFlood flood-opacity="0" result="BackgroundImageFix"/>
<feBlend mode="normal" in="SourceGraphic" in2="BackgroundImageFix" result="shape"/>
<feColorMatrix in="SourceAlpha" type="matrix" values="0 0 0 0 0 0 0 0 0 0 0 0 0 0 0 0 0 0 127 0" result="hardAlpha"/>
<feOffset dx="27.9852" dy="17.1533"/>
<feGaussianBlur stdDeviation="6.9963"/>
<feComposite in2="hardAlpha" operator="arithmetic" k2="-1" k3="1"/>
<feColorMatrix type="matrix" values="0 0 0 0 1 0 0 0 0 1 0 0 0 0 1 0 0 0 0.8 0"/>
<feBlend mode="normal" in2="shape" result="effect1_innerShadow_253_3918"/>
</filter>
<filter id="filter1_i_253_3918" x="16.3069" y="10.9303" width="70.6564" height="133.458" filterUnits="userSpaceOnUse" color-interpolation-filters="sRGB">
<feFlood flood-opacity="0" result="BackgroundImageFix"/>
<feBlend mode="normal" in="SourceGraphic" in2="BackgroundImageFix" result="shape"/>
<feColorMatrix in="SourceAlpha" type="matrix" values="0 0 0 0 0 0 0 0 0 0 0 0 0 0 0 0 0 0 127 0" result="hardAlpha"/>
<feOffset dx="27.9852" dy="17.1533"/>
<feGaussianBlur stdDeviation="6.9963"/>
<feComposite in2="hardAlpha" operator="arithmetic" k2="-1" k3="1"/>
<feColorMatrix type="matrix" values="0 0 0 0 1 0 0 0 0 1 0 0 0 0 1 0 0 0 0.8 0"/>
<feBlend mode="normal" in2="shape" result="effect1_innerShadow_253_3918"/>
</filter>
<linearGradient id="paint0_linear_253_3918" x1="69.9104" y1="23.9893" x2="47.6845" y2="-10.3598" gradientUnits="userSpaceOnUse">
<stop stop-color="#3C2012"/>
<stop offset="0.798084" stop-color="#EAB775"/>
</linearGradient>
<linearGradient id="paint1_linear_253_3918" x1="86.102" y1="113.88" x2="9.68068" y2="36.2519" gradientUnits="userSpaceOnUse">
<stop stop-color="#D9D9D9" stop-opacity="0.7"/>
<stop offset="1" stop-color="#737373" stop-opacity="0"/>
</linearGradient>
<linearGradient id="paint2_linear_253_3918" x1="56.4644" y1="27.882" x2="63.3119" y2="-6.78912" gradientUnits="userSpaceOnUse">
<stop offset="0.124015" stop-color="#3C2012"/>
<stop offset="0.798084" stop-color="#FCB900"/>
</linearGradient>
<linearGradient id="paint3_linear_253_3918" x1="57.1596" y1="21.845" x2="45.7071" y2="3.42944" gradientUnits="userSpaceOnUse">
<stop stop-color="#FDEAEA"/>
<stop offset="1" stop-color="#737373" stop-opacity="0"/>
</linearGradient>
<linearGradient id="paint4_linear_253_3918" x1="31.1467" y1="10.1774" x2="68.3137" y2="142.812" gradientUnits="userSpaceOnUse">
<stop stop-color="white"/>
<stop offset="1" stop-color="#4D4D4D"/>
</linearGradient>
<linearGradient id="paint5_linear_253_3918" x1="56.5506" y1="1.45545" x2="57.2842" y2="6.38996" gradientUnits="userSpaceOnUse">
<stop stop-color="white"/>
<stop offset="1" stop-color="#F3CC91"/>
</linearGradient>
<linearGradient id="paint6_linear_253_3918" x1="31.8449" y1="29.6832" x2="86.3502" y2="88.47" gradientUnits="userSpaceOnUse">
<stop stop-color="#603C2A"/>
<stop offset="1" stop-color="#FFCC57"/>
</linearGradient>
<linearGradient id="paint7_linear_253_3918" x1="31.8449" y1="29.6832" x2="86.3502" y2="88.47" gradientUnits="userSpaceOnUse">
<stop offset="0.403846" stop-color="#603C2A"/>
<stop offset="1" stop-color="#FFCC57"/>
</linearGradient>
<linearGradient id="paint8_linear_253_3918" x1="31.8449" y1="29.6832" x2="86.3502" y2="88.47" gradientUnits="userSpaceOnUse">
<stop stop-color="#603C2A"/>
<stop offset="0.600962" stop-color="#FFCC57"/>
</linearGradient>
</defs>
</svg>
