<svg width="1440" height="1042" viewBox="0 0 1440 1042" fill="none" xmlns="http://www.w3.org/2000/svg">
<path d="M-297.082 124.093C-379.19 32.4392 -517.239 30.4127 -576 40.8563L-550 1002.29C-393.304 1002.29 -196.719 774.089 177 906.426C550.719 1038.76 774.717 954.124 871.085 906.426C967.453 858.729 1133.55 877.901 1459.48 1002.29C1720.22 1101.8 1829.8 991.066 1852 923.261V0C1653.84 0 1576.51 192.889 1425.93 159.69C1374.83 148.426 1160 6.66997 961.472 61.8994C804.367 105.605 545 107.696 473.5 83.8238C402.547 60.1341 179.692 19.5701 52.3498 61.8994C-83.4612 107.044 -194.446 238.661 -297.082 124.093Z" fill="#114656"/>
<path d="M-297.082 162.303C-379.19 79.3571 -517.239 77.5232 -576 86.9746L-550 946.225C-393.304 946.225 -196.719 737.029 177 856.793C550.719 976.557 774.717 913.473 871.085 870.307C967.453 827.141 1133.55 844.492 1459.48 957.062C1720.22 1047.12 1829.8 946.905 1852 885.542V50C1653.84 50 1576.51 224.563 1425.93 194.518C1374.83 184.324 1160 64.2192 961.472 106.018C806.848 138.574 518 139.58 455.058 119.016C389.752 97.6811 178 78.7099 52.3498 106.018C-77.4744 134.234 -194.446 265.986 -297.082 162.303Z" fill="#1A748E"/>
</svg>
