<svg width="1440" height="1323" viewBox="0 0 1440 1323" fill="none" xmlns="http://www.w3.org/2000/svg">
<g filter="url(#filter0_f_291_157)">
<g clip-path="url(#paint0_diamond_291_157_clip_path)" data-figma-skip-parse="true"><g transform="matrix(1.2222 0.26876 0.126166 -2.60353 352.684 278.892)"><rect x="0" y="0" width="944.734" height="421.364" fill="url(#paint0_diamond_291_157)" opacity="1" shape-rendering="crispEdges"/><rect x="0" y="0" width="944.734" height="421.364" transform="scale(1 -1)" fill="url(#paint0_diamond_291_157)" opacity="1" shape-rendering="crispEdges"/><rect x="0" y="0" width="944.734" height="421.364" transform="scale(-1 1)" fill="url(#paint0_diamond_291_157)" opacity="1" shape-rendering="crispEdges"/><rect x="0" y="0" width="944.734" height="421.364" transform="scale(-1)" fill="url(#paint0_diamond_291_157)" opacity="1" shape-rendering="crispEdges"/></g></g><path d="M432.211 1244.39C317.884 1298.39 91.1833 1266.89 -7.87607 1244.39H-30V150.244H1465.15V1299.16C1475.61 1306.38 1471.08 1305.53 1369.19 1244.39C1241.83 1167.96 575.119 1176.88 432.211 1244.39Z" data-figma-gradient-fill="{&#34;type&#34;:&#34;GRADIENT_DIAMOND&#34;,&#34;stops&#34;:[{&#34;color&#34;:{&#34;r&#34;:0.60784316062927246,&#34;g&#34;:0.81960785388946533,&#34;b&#34;:0.86666667461395264,&#34;a&#34;:1.0},&#34;position&#34;:0.0},{&#34;color&#34;:{&#34;r&#34;:0.074509806931018829,&#34;g&#34;:0.56470590829849243,&#34;b&#34;:0.68235296010971069,&#34;a&#34;:1.0},&#34;position&#34;:1.0}],&#34;stopsVar&#34;:[{&#34;color&#34;:{&#34;r&#34;:0.60784316062927246,&#34;g&#34;:0.81960785388946533,&#34;b&#34;:0.86666667461395264,&#34;a&#34;:1.0},&#34;position&#34;:0.0},{&#34;color&#34;:{&#34;r&#34;:0.074509806931018829,&#34;g&#34;:0.56470590829849243,&#34;b&#34;:0.68235296010971069,&#34;a&#34;:1.0},&#34;position&#34;:1.0}],&#34;transform&#34;:{&#34;m00&#34;:2444.3947753906250,&#34;m01&#34;:252.33232116699219,&#34;m02&#34;:-995.6794433593750,&#34;m10&#34;:537.519042968750,&#34;m11&#34;:-5207.056152343750,&#34;m12&#34;:2613.6608886718750},&#34;opacity&#34;:1.0,&#34;blendMode&#34;:&#34;NORMAL&#34;,&#34;visible&#34;:true}"/>
</g>
<path d="M50.9704 242.836C37.2496 246.494 12.5287 231.829 1.88332 224.039L-75 132.087C-57.8491 122.435 -8.64378 100.691 50.9704 90.937C125.488 78.7443 124.897 103.13 210.06 103.13C295.223 103.13 292.857 90.937 344.31 81.7925C395.762 72.648 411.139 103.13 459.043 81.7925C506.948 60.4554 496.302 81.7925 533.561 81.7925C570.82 81.7925 596.842 72.648 634.101 72.648C671.36 72.648 699.747 90.937 729.318 90.937C758.888 90.937 823.352 69.5999 858.837 72.648C894.321 75.6962 877.762 115.322 909.698 115.322C941.634 115.322 950.505 93.9851 975.344 90.937C1000.18 87.8888 1026.8 103.13 1074.11 103.13C1121.42 103.13 1143.3 81.7925 1164.6 60.4554C1185.89 39.1183 1232.02 45.2146 1265.14 43.6906C1298.25 42.1665 1320.14 65.0276 1410.03 60.4554C1499.93 55.8832 1457.94 207.783 1427.77 207.783C1397.61 207.783 1391.11 172.729 1368.04 172.729C1344.98 172.729 1350.3 207.783 1320.14 207.783C1289.97 207.783 1275.78 164.093 1232.02 164.093C1188.25 164.093 1189.43 207.783 1164.6 207.783C1139.76 207.783 1122.01 172.729 1102.5 172.729C1082.98 172.729 1046.31 207.783 1010.83 207.783C975.344 207.783 980.667 172.729 941.634 172.729C902.601 172.729 897.87 207.783 858.837 207.783C819.804 207.783 794.964 164.093 775.448 164.093C755.931 164.093 728.135 207.783 699.747 207.783C671.36 207.783 650.069 164.093 616.358 164.093C582.648 164.093 573.777 207.783 533.561 207.783C493.345 207.783 475.011 164.093 459.043 164.093C443.075 164.093 444.85 207.783 411.139 207.783C377.429 207.783 338.987 189.494 326.568 191.018C314.148 192.542 317.696 224.039 260.921 224.039C232.533 224.039 227.211 191.018 210.06 207.783C192.909 224.548 174.575 232.168 153.284 235.216C131.994 238.264 100.057 206.259 94.7347 224.039C89.412 241.82 68.1213 238.264 50.9704 242.836Z" fill="url(#paint1_linear_291_157)"/>
<path d="M468.381 232.583C471.128 232.787 473.106 232.845 474.259 232.862C476.629 231.98 477.957 231.125 479.135 230.403C480.316 229.679 481.315 229.106 481.986 228.378C482.658 227.65 483.182 226.758 482.814 225.625C481.971 223.029 479.998 220.272 479.448 217.536C478.277 211.714 479.521 201.025 475.91 197.309C474.23 195.579 469.749 194.206 464.117 194.869C460.433 195.302 457.26 195.704 455.386 197.478C453.711 199.065 451.24 200.966 451.359 203.703C451.712 211.836 457.551 231.78 468.381 232.583Z" fill="url(#paint2_linear_291_157)"/>
<path d="M754.527 234.074C756.078 235.166 760.48 235.321 762.84 235.321C764.706 235.321 765.968 234.85 767.06 234.609C768.152 234.369 768.515 233.902 768.976 233.348C771.083 231.069 774.905 229.902 776.478 226.665C778.394 222.724 779.884 217.156 778.018 212.675C777.104 210.48 775.45 208.185 772.513 206.628C769.409 204.983 765.511 203.543 761.347 203.971C757.516 204.365 754.036 205.336 752.675 207.679C751.308 210.032 749.8 214.679 750.587 220.986C751.319 226.863 751.793 232.15 754.527 234.074Z" fill="url(#paint3_linear_291_157)"/>
<path d="M731.151 234.617C731.738 234.696 732.297 234.696 732.788 234.696C733.349 234.482 733.533 234.27 733.72 234.19C733.906 234.109 734.09 234.004 734.277 233.897C735.021 233.47 736.471 233.15 736.939 231.925C737.061 231.603 737.211 231.161 736.967 230.941C735.746 229.847 733.633 228.754 731.822 228.977C731.175 229.057 729.78 229.193 729.533 230.262C729.257 231.458 729.259 232.572 729.694 233.238C730.127 233.901 730.564 234.538 731.151 234.617Z" fill="url(#paint4_linear_291_157)"/>
<path d="M755.931 243.853C756.488 243.932 757.214 244.113 757.501 244.113C758.347 244.114 759.198 243.534 759.48 243.345C760.129 242.84 760.6 242.407 760.782 240.624C760.596 240.121 760.408 239.748 760.068 239.509C759.728 239.271 759.36 239.045 758.605 239.032C757.12 239.006 754.857 239.015 754.804 239.968C754.717 241.518 754.787 243.69 755.931 243.853Z" fill="url(#paint5_linear_291_157)"/>
<path d="M737.554 243.747C737.311 245.342 737.433 246.296 737.619 246.507C738.117 246.83 738.426 246.988 738.613 247.094C739.734 247.088 741.464 246.453 742.358 245.945C742.45 245.494 742.717 244.438 741.793 243.895C740.709 243.259 739.695 242.823 738.943 242.998C738.474 243.107 737.624 243.292 737.554 243.747Z" fill="url(#paint6_linear_291_157)"/>
<path d="M993.655 221.091C997.615 223.401 1001.52 224.233 1002.98 224.233C1003.71 223.952 1004.08 223.673 1004.32 223.531C1005.14 222.759 1005.67 222.34 1006.85 221.499C1007.71 220.658 1009.05 219.44 1008.32 217.505C1007.86 216.313 1007.19 214.808 1005.91 213.902C1005.66 213.729 1005.42 213.741 1005.01 213.657C1002.97 213.237 1001.32 213.02 1000.03 213.345C997.669 213.943 994.405 214.157 993.517 215.306C993.274 215.622 991.151 216.854 991.934 219.201C992.146 219.834 992.716 220.543 993.655 221.091Z" fill="url(#paint7_linear_291_157)"/>
<path d="M1019.49 217.512C1019.96 217.551 1020.03 217.551 1020.16 217.551C1020.51 217.671 1020.72 217.671 1020.91 217.64C1021.25 217.551 1021.64 217.492 1022.55 216.804C1022.92 216.417 1023.36 216.043 1023.19 215.493C1023.05 215.024 1022.57 214.176 1022.01 214.023C1021.24 213.813 1019.4 213.371 1018.92 213.806C1018.61 214.094 1017.73 215.042 1018.16 215.954C1018.48 216.622 1018.98 217.468 1019.49 217.512Z" fill="url(#paint8_linear_291_157)"/>
<path d="M282.44 240.278C284.074 241.615 287.042 242.268 288.134 242.309C288.965 242.309 289.399 241.841 289.9 241.82C291.269 241.55 291.345 241.32 292.087 240.805C292.253 240.497 292.639 239.269 292.132 238.151C291.965 237.782 291.154 236.922 289.657 235.884L289.643 235.874C288.407 235.017 287.291 234.243 286.114 234.244C284.008 234.247 281.696 234.292 281.476 235.442C281.238 236.681 280.764 238.905 282.44 240.278Z" fill="url(#paint9_linear_291_157)"/>
<path d="M1163.87 224.823C1165.78 225.564 1168.14 225.564 1168.99 225.287C1170.75 224.71 1170.55 223.677 1170.71 223.068C1170.86 222.46 1170.86 221.665 1170.62 220.721C1169.14 217.248 1167.95 214.573 1165.63 214.577C1163.37 214.581 1159.9 214.377 1159.01 216.332C1158.71 217.015 1158.53 218.387 1159.02 219.48C1159.96 221.548 1161.28 223.816 1163.87 224.823Z" fill="url(#paint10_linear_291_157)"/>
<path d="M335.246 62.6173C342.285 60.3015 350.588 59.3543 351.553 58.494C352.563 57.5924 354.188 57.1567 355.721 57.0965C357.254 57.0364 357.203 57.0364 358.913 57.0983C363.092 57.7725 365.47 58.8817 367.197 59.529C368.985 60.1995 370.741 61.4437 373.31 61.7774C378.894 62.5025 384.459 62.6589 385.715 61.3437C387.643 59.3249 390.393 55.6267 389.754 53.447L389.729 53.3619C389.251 51.7261 388.603 49.5126 386.799 47.9189C384.598 45.973 382.431 42.3146 375.814 39.5958L375.751 39.5701C371.797 37.9451 367.638 36.2363 360.707 39.2551C352.779 42.7078 351.098 44.0413 345.009 43.4294C341.384 43.065 335.958 41.1746 329.781 39.3535C326.302 38.3277 324.438 37.7807 323.077 38.211C319.989 39.1877 316.232 40.2614 314.645 43.2599C313.001 46.3665 310.973 49.4815 312.116 51.7598C313.437 54.3908 316.059 58.7673 318.709 59.9571C322.787 61.7883 331.465 63.8612 335.246 62.6173Z" fill="url(#paint11_linear_291_157)"/>
<path d="M869.281 61.5874C876.638 61.4264 885.251 58.0158 888.583 56.1602C889.811 55.2981 890.642 53.9887 890.756 53.5468C891.083 52.2835 892.089 50.1703 892.639 49.2549C894.216 45.8033 894.477 42.7058 894.411 39.426C894.366 37.1745 894.896 34.5368 891.548 32.3528C890.323 31.5539 888.328 30.6887 885.895 30.7795C884.389 30.8358 883.398 31.4437 882.161 32.4314C879.254 34.7514 876.869 38.7083 873.774 39.0218C872.621 39.1385 864.911 39.5578 860.939 35.7398C857.881 32.8004 853.613 29.5481 848.658 30.3354C844.482 30.9989 835.648 32.8029 835.122 36.8492C834.742 39.7734 834.559 42.3307 835.435 43.1425C837.513 45.0679 840.552 50.0684 843.475 50.2156C844.768 50.2807 851.341 49.795 854.758 53.225C858.634 57.1163 862.835 61.7284 869.281 61.5874Z" fill="url(#paint12_linear_291_157)"/>
<path d="M1200.59 21.7193C1205.01 21.3376 1208.67 19.9766 1209.26 19.9766C1210.46 19.7144 1212.66 19.2787 1213.7 18.8893C1217.39 16.9576 1220.92 14.9064 1223.42 12.0726C1224.15 8.72202 1223.77 4.66559 1220.75 1.53512C1220.01 0.763996 1219.15 -0.00109482 1217.04 0.000579834C1207.32 0.00829315 1204.43 5.22703 1196.37 5.27894C1178.99 5.39075 1164.59 2.46958 1161.77 7.59617C1159.56 11.606 1156.8 20.6107 1160.47 25.602C1162.83 28.8099 1165.03 31.4731 1167.26 32.01C1169.91 32.6501 1175.69 34.6856 1182.02 32.6423C1190.86 29.7892 1195.03 22.1996 1200.59 21.7193Z" fill="url(#paint13_linear_291_157)"/>
<defs>
<filter id="filter0_f_291_157" x="-50" y="130.244" width="1539" height="1192" filterUnits="userSpaceOnUse" color-interpolation-filters="sRGB">
<feFlood flood-opacity="0" result="BackgroundImageFix"/>
<feBlend mode="normal" in="SourceGraphic" in2="BackgroundImageFix" result="shape"/>
<feGaussianBlur stdDeviation="0" result="effect1_foregroundBlur_291_157"/>
</filter>
<clipPath id="paint0_diamond_291_157_clip_path"><path d="M432.211 1244.39C317.884 1298.39 91.1833 1266.89 -7.87607 1244.39H-30V150.244H1465.15V1299.16C1475.61 1306.38 1471.08 1305.53 1369.19 1244.39C1241.83 1167.96 575.119 1176.88 432.211 1244.39Z"/></clipPath><linearGradient id="paint0_diamond_291_157" x1="0" y1="0" x2="500" y2="500" gradientUnits="userSpaceOnUse">
<stop stop-color="#9BD1DD"/>
<stop offset="1" stop-color="#1390AE"/>
</linearGradient>
<linearGradient id="paint1_linear_291_157" x1="694.683" y1="243.412" x2="694.929" y2="-89.9202" gradientUnits="userSpaceOnUse">
<stop stop-color="white"/>
<stop offset="1" stop-color="#9BD1DD"/>
</linearGradient>
<linearGradient id="paint2_linear_291_157" x1="467.145" y1="232.869" x2="467.583" y2="169.189" gradientUnits="userSpaceOnUse">
<stop stop-color="white"/>
<stop offset="1" stop-color="#9BD1DD"/>
</linearGradient>
<linearGradient id="paint3_linear_291_157" x1="764.622" y1="235.321" x2="764.951" y2="182.893" gradientUnits="userSpaceOnUse">
<stop stop-color="white"/>
<stop offset="1" stop-color="#9BD1DD"/>
</linearGradient>
<linearGradient id="paint4_linear_291_157" x1="733.221" y1="234.696" x2="733.261" y2="225.106" gradientUnits="userSpaceOnUse">
<stop stop-color="white"/>
<stop offset="1" stop-color="#9BD1DD"/>
</linearGradient>
<linearGradient id="paint5_linear_291_157" x1="757.78" y1="244.113" x2="757.821" y2="235.625" gradientUnits="userSpaceOnUse">
<stop stop-color="white"/>
<stop offset="1" stop-color="#9BD1DD"/>
</linearGradient>
<linearGradient id="paint6_linear_291_157" x1="739.942" y1="247.094" x2="739.974" y2="240.196" gradientUnits="userSpaceOnUse">
<stop stop-color="white"/>
<stop offset="1" stop-color="#9BD1DD"/>
</linearGradient>
<linearGradient id="paint7_linear_291_157" x1="1000.14" y1="224.233" x2="1000.21" y2="205.806" gradientUnits="userSpaceOnUse">
<stop stop-color="white"/>
<stop offset="1" stop-color="#9BD1DD"/>
</linearGradient>
<linearGradient id="paint8_linear_291_157" x1="1020.64" y1="217.657" x2="1020.67" y2="210.924" gradientUnits="userSpaceOnUse">
<stop stop-color="white"/>
<stop offset="1" stop-color="#9BD1DD"/>
</linearGradient>
<linearGradient id="paint9_linear_291_157" x1="286.806" y1="242.309" x2="286.861" y2="228.855" gradientUnits="userSpaceOnUse">
<stop stop-color="white"/>
<stop offset="1" stop-color="#9BD1DD"/>
</linearGradient>
<linearGradient id="paint10_linear_291_157" x1="1164.76" y1="225.457" x2="1164.86" y2="207.299" gradientUnits="userSpaceOnUse">
<stop stop-color="white"/>
<stop offset="1" stop-color="#9BD1DD"/>
</linearGradient>
<linearGradient id="paint11_linear_291_157" x1="350.815" y1="62.9951" x2="350.894" y2="20.6164" gradientUnits="userSpaceOnUse">
<stop stop-color="white"/>
<stop offset="1" stop-color="#9BD1DD"/>
</linearGradient>
<linearGradient id="paint12_linear_291_157" x1="880.892" y1="60.4435" x2="845.163" y2="-4.44911" gradientUnits="userSpaceOnUse">
<stop stop-color="white"/>
<stop offset="1" stop-color="#9BD1DD"/>
</linearGradient>
<linearGradient id="paint13_linear_291_157" x1="1191.21" y1="33.5303" x2="1191.37" y2="-22.4094" gradientUnits="userSpaceOnUse">
<stop stop-color="white"/>
<stop offset="1" stop-color="#9BD1DD"/>
</linearGradient>
</defs>
</svg>
